<!-- icon666.com - MILLIONS OF FREE VECTOR ICONS --><svg clip-rule="evenodd" fill-rule="evenodd" image-rendering="optimizeQuality" shape-rendering="geometricPrecision" text-rendering="geometricPrecision" viewBox="0 0 43.3492 43.3492" xmlns="http://www.w3.org/2000/svg"><g id="Layer_x0020_1"><g id="_212484496"><path id="_212485408" d="m16.5747 34.2615h-14.0248v-26.1372c0-1.7531 1.4343-3.1874 3.1874-3.1874h7.6499c1.7531 0 3.1875 1.4344 3.1875 3.1874v3.33h-1.9125v-1.4608c0-.6773-.5543-1.2317-1.2317-1.2317h-7.7364c-.6775 0-1.2317.5543-1.2317 1.2317v8.0318c0 .6774.5542 1.2317 1.2317 1.2317h7.7364c.6774 0 1.2317-.5544 1.2317-1.2317v-.8167h1.9125zm-9.8616-9.5611h5.4425c.3836 0 .6973.3137.6973.6972v4.1878c0 .3835-.3137.6972-.6973.6972h-5.4425c-.3835 0-.6973-.3137-.6973-.6972v-4.1878c0-.3835.3138-.6972.6973-.6972z"></path><path id="_212485600" d="m2.5498 35.2248h14.0249c1.4025 0 2.5499 1.1475 2.5499 2.55v.6376h-19.1247v-.6376c0-1.4025 1.1474-2.55 2.5499-2.55z"></path><circle id="_212485456" cx="9.562" cy="14.009" r="2.568"></circle><path id="_212484640" d="m12.7157 12.4176h5.8847l1.9768 3.8277h-8.2811c.4986-.6089.7979-1.3874.7979-2.2359 0-.5727-.1364-1.1134-.3783-1.5918zm6.9662 0h5.177l1.9767 3.8277h-5.1769zm6.2585 0h5.177l1.9767 3.8277h-5.1769zm6.2585 0h5.1769l1.9768 3.8277h-5.1769zm6.2585 0h4.8918v3.8277h-2.915z"></path></g></g></svg>